<svg width="96" height="96" viewBox="0 0 96 96" xmlns="http://www.w3.org/2000/svg">
  <ellipse cx="48" cy="56" rx="28" ry="30" fill="#F68F1F"/>
  <path d="M48 26C54 29 61 36 63 46C66 60 61 78 48 86C35 78 30 60 33 46C35 36 42 29 48 26Z" fill="#F68F1F"/>
  <path d="M48 26C43 30 39 37 38 46C37 60 40 73 48 84C34 76 28 58 31 44C33 34 40 28 48 26Z" fill="#E77D1A"/>
  <path d="M63 48C68 48 72 52 72 57C72 63 68 68 63 71C65 66 66 60 66 54C66 52 65 50 63 48Z" fill="#F8A640" opacity="0.85"/>
  <path d="M43 20C31 17 24 15 18 13C23 8 28 6 36 7C43 8 47 12 50 17C47 18 45 19 43 20Z" fill="#61BA4E"/>
  <path d="M43 20C39 18 36 17 33 16C39 12 44 11 49 13C53 15 56 18 57 22C52 20 48 19 43 20Z" fill="#44A635"/>
  <path d="M49 24C51 21 54 20 57 20C60 20 62 21 64 23C61 24 59 26 58 29C56 27 53 25 49 24Z" fill="#4F8F2E"/>
</svg>
